<svg version="1.1" xmlns="http://www.w3.org/2000/svg" xmlns:xlink="http://www.w3.org/1999/xlink" width="69" height="67" viewBox="0 0 69 67"><path id="Shape-5" d="M68.876,35.325 C68.223,38.375 57.006,45.623 52.965,41.078 C49.294,36.949 58.712,25.717 63.077,26.866 C67.441,28.016 69.650,31.714 68.876,35.325 zM41.517,24.997 C38.301,23.009 41.767,4.579 47.806,3.787 C54.859,2.862 58.151,11.841 57.055,17.129 C55.984,22.299 47.921,28.955 41.517,24.997 zM51.007,52.259 C51.593,60.047 46.743,64.829 41.990,65.974 C37.237,67.118 32.785,64.872 30.337,60.208 C26.674,63.993 21.768,64.893 17.531,62.453 C13.293,60.013 9.991,54.060 12.753,46.751 C14.676,41.668 19.030,37.152 25.347,33.695 C30.076,31.108 34.184,30.024 34.356,29.979 C34.469,29.950 34.584,29.944 34.697,29.961 C34.811,29.977 34.920,30.015 35.019,30.074 C35.172,30.166 38.809,32.365 42.613,36.180 C47.697,41.279 50.600,46.840 51.007,52.259 zM29.558,23.276 C22.296,25.267 16.440,16.608 16.874,11.346 C17.316,5.964 23.010,-1.722 29.516,1.155 C35.084,3.617 33.203,22.275 29.558,23.276 zM14.033,35.474 C8.872,38.695 0.159,28.578 0.393,25.469 C0.671,21.786 3.834,18.861 8.346,18.989 C12.858,19.117 18.720,32.548 14.033,35.474 z" fill="#553457" /></svg>