<svg version="1.1" xmlns="http://www.w3.org/2000/svg" xmlns:xlink="http://www.w3.org/1999/xlink" width="48" height="43" viewBox="0 0 48 43"><path id="Shape-10" d="M47.596,5.059 C47.596,5.059 43.806,7.791 43.806,7.791 C43.503,8.043 43.099,8.043 42.745,7.892 C42.392,7.689 42.189,7.335 42.189,6.931 C42.189,6.931 42.189,5.261 42.189,5.261 C42.189,5.261 31.427,5.261 31.427,5.261 C30.720,5.261 30.164,4.705 30.164,3.996 C30.164,3.288 30.720,2.732 31.427,2.732 C31.427,2.732 42.189,2.732 42.189,2.732 C42.189,2.732 42.189,1.012 42.189,1.012 C42.189,0.607 42.442,0.253 42.796,0.101 C42.897,0.050 43.048,-0.000 43.200,-0.000 C43.453,-0.000 43.655,0.101 43.857,0.253 C43.857,0.253 47.646,3.491 47.646,3.491 C47.899,3.693 48.000,3.996 48.000,4.300 C48.000,4.603 47.848,4.856 47.596,5.059 zM32.539,16.896 C33.145,16.188 34.004,15.733 34.964,15.733 C36.429,15.733 37.693,16.744 38.046,18.161 C38.703,17.453 39.714,16.998 40.825,17.149 C42.392,17.352 43.554,18.819 43.554,20.488 C43.554,20.488 43.554,32.832 43.554,32.832 C43.554,32.882 43.554,32.984 43.554,33.034 C43.503,38.548 38.956,43.000 33.398,43.000 C33.398,43.000 29.710,43.000 29.710,43.000 C26.375,43.000 23.343,41.432 21.474,38.801 C21.423,38.750 11.065,23.068 11.065,23.068 C10.156,21.753 10.661,19.881 12.126,18.920 C13.592,17.959 15.512,18.262 16.371,19.578 C16.371,19.578 20.059,25.193 20.059,25.193 C20.312,25.547 20.867,25.345 20.867,24.940 C20.867,24.940 20.867,3.440 20.867,3.440 C20.867,1.568 22.535,0.051 24.455,0.303 C26.072,0.506 27.234,1.973 27.234,3.592 C27.234,3.592 27.234,15.632 27.234,15.632 C27.840,15.025 28.648,14.670 29.507,14.670 C30.922,14.670 32.135,15.632 32.539,16.896 zM16.573,5.312 C16.573,5.312 5.811,5.312 5.811,5.312 C5.811,5.312 5.811,6.931 5.811,6.931 C5.811,7.335 5.608,7.740 5.255,7.892 C4.901,8.043 4.497,7.993 4.194,7.791 C4.194,7.791 0.404,5.059 0.404,5.059 C0.152,4.907 0.000,4.603 0.000,4.300 C0.000,3.996 0.101,3.693 0.354,3.491 C0.354,3.491 4.143,0.253 4.143,0.253 C4.345,0.101 4.547,-0.000 4.800,-0.000 C4.901,-0.000 5.053,0.051 5.204,0.101 C5.558,0.253 5.811,0.607 5.811,1.012 C5.811,1.012 5.811,2.732 5.811,2.732 C5.811,2.732 16.573,2.732 16.573,2.732 C17.280,2.732 17.836,3.288 17.836,3.996 C17.836,4.705 17.280,5.312 16.573,5.312 z" fill="#FFFFFF" /></svg>